<svg height="512" viewBox="0 0 64 64" width="512" xmlns="http://www.w3.org/2000/svg"><path d="m61 55v4a2.006 2.006 0 0 1 -2 2h-4a2.006 2.006 0 0 1 -2-2v-4z" fill="#ffde55"/><path d="m61 53v2h-4v-4h2a2.006 2.006 0 0 1 2 2z" fill="#ffc477"/><path d="m47 3v40h14v-40zm4 4h6v4h-6zm0 8h6v4h-6zm3 9a3 3 0 1 1 -3 3 3 3 0 0 1 3-3z" fill="#ff7956"/><path d="m57 51v4h-4v-2a2.006 2.006 0 0 1 2-2z" fill="#ff3051"/><path d="m51 15h6v4h-6z" fill="#46f8ff"/><path d="m51 7h6v4h-6z" fill="#46f8ff"/><circle cx="54" cy="27" fill="#ff3051" r="3"/><path d="m43 5v24a2.006 2.006 0 0 1 -2 2h-36a2.006 2.006 0 0 1 -2-2v-24a2.006 2.006 0 0 1 2-2h36a2.006 2.006 0 0 1 2 2z" fill="#46f8ff"/><path d="m42 47v14h-38v-14zm-4 10v-6h-6v6z" fill="#ffc477"/><path d="m32 51h6v6h-6z" fill="#46f8ff"/><path d="m30 39a2.006 2.006 0 0 1 2 2 2.015 2.015 0 0 1 -2 2h-14a2.006 2.006 0 0 1 -2-2 2.015 2.015 0 0 1 2-2z" fill="#ffc477"/><path d="m25 31 4 8h-12l4-8z" fill="#ff7956"/><path d="m41 2h-36a3 3 0 0 0 -3 3v24a3 3 0 0 0 3 3h14.382l-3 6h-.382a3 3 0 0 0 0 6h14a3 3 0 0 0 0-6h-.382l-3-6h14.382a3 3 0 0 0 3-3v-24a3 3 0 0 0 -3-3zm-10 39a1 1 0 0 1 -1 1h-14a1 1 0 0 1 0-2h14a1 1 0 0 1 1 1zm-3.618-3h-8.764l3-6h2.764zm14.618-9a1 1 0 0 1 -1 1h-36a1 1 0 0 1 -1-1v-24a1 1 0 0 1 1-1h36a1 1 0 0 1 1 1z"/><path d="m39 6h-3v2h2v2h2v-3a1 1 0 0 0 -1-1z"/><path d="m38 11h2v2h-2z"/><path d="m42 46h-38a1 1 0 0 0 -1 1v14a1 1 0 0 0 1 1h38a1 1 0 0 0 1-1v-14a1 1 0 0 0 -1-1zm-1 14h-36v-12h36z"/><path d="m61 2h-14a1 1 0 0 0 -1 1v40a1 1 0 0 0 1 1h14a1 1 0 0 0 1-1v-40a1 1 0 0 0 -1-1zm-1 40h-12v-38h12z"/><path d="m59 50h-4a3 3 0 0 0 -3 3v6a3 3 0 0 0 3 3h4a3 3 0 0 0 3-3v-6a3 3 0 0 0 -3-3zm1 3v1h-2v-2h1a1 1 0 0 1 1 1zm-5-1h1v2h-2v-1a1 1 0 0 1 1-1zm4 8h-4a1 1 0 0 1 -1-1v-3h6v3a1 1 0 0 1 -1 1z"/><path d="m7 50h4v2h-4z"/><path d="m7 56h4v2h-4z"/><path d="m13 50h4v2h-4z"/><path d="m13 56h4v2h-4z"/><path d="m19 50h4v2h-4z"/><path d="m19 56h4v2h-4z"/><path d="m25 50h4v2h-4z"/><path d="m25 56h4v2h-4z"/><path d="m32 58h6a1 1 0 0 0 1-1v-6a1 1 0 0 0 -1-1h-6a1 1 0 0 0 -1 1v6a1 1 0 0 0 1 1zm1-6h4v4h-4z"/><path d="m51 12h6a1 1 0 0 0 1-1v-4a1 1 0 0 0 -1-1h-6a1 1 0 0 0 -1 1v4a1 1 0 0 0 1 1zm1-4h4v2h-4z"/><path d="m51 20h6a1 1 0 0 0 1-1v-4a1 1 0 0 0 -1-1h-6a1 1 0 0 0 -1 1v4a1 1 0 0 0 1 1zm1-4h4v2h-4z"/><path d="m54 31a4 4 0 1 0 -4-4 4 4 0 0 0 4 4zm0-6a2 2 0 1 1 -2 2 2 2 0 0 1 2-2z"/><path d="m50 38h8v2h-8z"/><path d="m50 34h8v2h-8z"/></svg>