<svg id="Layer_1" enable-background="new 0 0 512.004 512.004" height="512" viewBox="0 0 512.004 512.004" width="512" xmlns="http://www.w3.org/2000/svg"><g><path d="m504.002 24v48c0 8.84-7.16 16-16 16h-464c-8.84 0-16-7.16-16-16v-48c0-8.84 7.16-16 16-16h464c8.84 0 16 7.16 16 16z" fill="#edebfd"/><path d="m488.002 8h-40c8.84 0 16 7.16 16 16v48c0 8.84-7.16 16-16 16h40c8.84 0 16-7.16 16-16v-48c0-8.84-7.16-16-16-16z" fill="#d2d2fc"/><path d="m472.002 88c-25.99 37.531-104.551 151.016-138.31 199.78-3.71 5.35-5.69 11.71-5.69 18.22v198l-144-40v-158c0-6.51-1.98-12.87-5.69-18.22-146.247-211.253-116.823-168.751-138.31-199.78z" fill="#7acef9"/><path d="m40.002 88 16.62 24h305.69c25.813 0 41.003 28.991 26.31 50.215l-86.93 125.565c-3.71 5.35-5.69 11.71-5.69 18.22v189.111l32 8.889v-198c0-6.51 1.98-12.87 5.69-18.22l138.31-199.78c-15.205 0-416.128 0-432 0z" fill="#6cb9e7"/><path d="m488.002 0h-464c-13.234 0-24 10.766-24 24v48c0 13.234 10.766 24 24 24h11.808l135.924 196.335c2.792 4.032 4.268 8.756 4.268 13.661v158.004c0 3.594 2.396 6.747 5.859 7.708l144 40c5.112 1.418 10.142-2.436 10.142-7.708v-198.004c0-4.904 1.476-9.628 4.267-13.661l135.923-196.335h11.809c13.233 0 24-10.766 24-24v-48c0-13.234-10.767-24-24-24zm-160.889 283.229c-4.652 6.721-7.111 14.594-7.111 22.768v187.479l-128-35.556v-151.924c0-8.175-2.459-16.048-7.112-22.769l-129.619-187.227h401.463zm168.889-211.229c0 4.411-3.589 8-8 8-9.144 0-437.418 0-464 0-4.411 0-8-3.589-8-8v-48c0-4.411 3.589-8 8-8h464c4.411 0 8 3.589 8 8z"/></g></svg>