<svg height="512" viewBox="0 0 64 64" width="512" xmlns="http://www.w3.org/2000/svg"><g id="Tools-2" data-name="Tools"><path d="m39 35.31v-10.31l-6 6v10.31z" fill="#ffcd00"/><path d="m47 17v11.31l6-6v30.69h-30.69l4-4h-11.31l-12 12h14 6 6 6 6 6 6 8v-8-6-6-6-6-6-6-14z" fill="#ffcd00"/><path d="m58 6v11 6 6 6 6 6 6 8h3v-8-6-6-6-6-6-6-14z" fill="#ebbf00"/><path d="m40.764 44.528 2.236 4.472 2.236-4.472a5 5 0 0 0 -4.472 0z" fill="#754c29"/><path d="m43 38 4 3v-12.69-11.31-4h-4z" fill="#d80027"/><path d="m39 41 4-3v-25h-4v12 10.31z" fill="#f7941d"/><path d="m43 44a4.941 4.941 0 0 1 2.236.528l1.764-3.528-4-3-4 3 1.764 3.528a4.941 4.941 0 0 1 2.236-.528z" fill="#d1d3d4"/><path d="m47 13v-4h-8v4h4z" fill="#2488ff"/><path d="m47 7a4 4 0 0 0 -8 0v2h8z" fill="#f1f2f2"/><path d="m45 13v4 11.31 11.19l2 1.5v-12.69-11.31-4z" fill="#bd0022"/><path d="m45 9h2v4h-2z" fill="#006df0"/><path d="m43 3a3.977 3.977 0 0 0 -1 .141 3.991 3.991 0 0 1 3 3.859v2h2v-2a4 4 0 0 0 -4-4z" fill="#d1d3d4"/><rect fill="#006df0" height="46" rx="2" width="30" x="3" y="3"/><path d="m31 3h-1a2.006 2.006 0 0 1 2 2v42a2.006 2.006 0 0 1 -2 2h1a2.006 2.006 0 0 0 2-2v-42a2.006 2.006 0 0 0 -2-2z" fill="#005ece"/><path d="m30 17v-11h-24v11h12z" fill="#7ed63e"/><path d="m18 17h12v10h-12z" fill="#9bc9ff"/><path d="m6 17h12v10h-12z" fill="#57a4ff"/><path d="m6 27h12v10h-12z" fill="#9bc9ff"/><path d="m18 37h-12v9h24v-9z" fill="#d80027"/><path d="m18 27h12v10h-12z" fill="#57a4ff"/><path d="m61.383 2.076a1 1 0 0 0 -1.09.217l-12.293 12.293v-7.586a5 5 0 0 0 -10 0v17.586l-4 4v-23.586a3 3 0 0 0 -3-3h-26a3 3 0 0 0 -3 3v42a3 3 0 0 0 3 3h7.586l-10.293 10.293a1 1 0 0 0 .707 1.707h58a1 1 0 0 0 1-1v-58a1 1 0 0 0 -.617-.924zm-34.659 47.924h4.276a3 3 0 0 0 3-3v-5.276l4-4v3.276a1 1 0 0 0 .1.447l4 8a1 1 0 0 0 1.79 0l4-8a1 1 0 0 0 .11-.447v-12.276l4-4v27.276h-27.276zm19.276-11-2-1.5v-23.5h2zm-1.253 4.27a6.061 6.061 0 0 0 -3.494 0l-.986-1.97 2.733-2.05 2.733 2.05zm-.914 1.83-.833 1.664-.833-1.664a4.1 4.1 0 0 1 1.666 0zm-3.833-31.1h2v23.5l-2 1.5zm6-2h-6v-2h6zm-6-5a3 3 0 0 1 6 0v1h-6zm-2 20.414v7.486l-4 4v-7.486zm-34 19.586v-42a1 1 0 0 1 1-1h26a1 1 0 0 1 1 1v42a1 1 0 0 1 -1 1h-26a1 1 0 0 1 -1-1zm50 13v-3h-2v3h-4v-3h-2v3h-4v-3h-2v3h-4v-3h-2v3h-4v-3h-2v3h-4v-3h-2v3h-4v-3h-2v3h-10.586l10-10h8.486l-2.3 2.293a1 1 0 0 0 .71 1.707h30.69a1 1 0 0 0 1-1v-30.69a1 1 0 0 0 -1.707-.707l-4.293 4.297v-8.486l12-12v10.586h-3v2h3v4h-3v2h3v4h-3v2h3v4h-3v2h3v4h-3v2h3v4h-3v2h3v4h-3v2h3v6z"/><path d="m31 46v-40a1 1 0 0 0 -1-1h-24a1 1 0 0 0 -1 1v40a1 1 0 0 0 1 1h24a1 1 0 0 0 1-1zm-24-10v-8h10v8zm22-18v8h-10v-8zm-12 8h-10v-8h10zm2 2h10v8h-10zm-12-21h22v9h-22zm22 38h-22v-7h22z"/><path d="m11 25h2v-2h2v-2h-2v-2h-2v2h-2v2h2z"/><path d="m13.414 29.172-1.414 1.414-1.414-1.414-1.414 1.414 1.414 1.414-1.414 1.414 1.414 1.414 1.414-1.414 1.414 1.414 1.414-1.414-1.414-1.414 1.414-1.414z"/><path d="m21 21h6v2h-6z"/><path d="m21 31v2h6v-2h-3z"/><path d="m15 39h6v2h-6z"/><path d="m15 42h6v2h-6z"/><path d="m24.38 30.92a.776.776 0 0 0 .18-.09l.15-.12.12-.15a.8.8 0 0 0 .09-.18.6.6 0 0 0 .059-.18 1.234 1.234 0 0 0 .021-.2 1 1 0 0 0 -1.71-.71 1.032 1.032 0 0 0 -.21.33 1 1 0 0 0 -.08.38 1.355 1.355 0 0 0 .02.2.636.636 0 0 0 .06.18.757.757 0 0 0 .09.18 1.576 1.576 0 0 0 .12.15l.149.12a.782.782 0 0 0 .181.09.636.636 0 0 0 .18.06 1.487 1.487 0 0 0 .2.02 1.369 1.369 0 0 0 .2-.02.646.646 0 0 0 .18-.06z"/><path d="m24.71 33.29a1.712 1.712 0 0 0 -.15-.12.776.776 0 0 0 -.18-.09.646.646 0 0 0 -.18-.06.9.9 0 0 0 -.4 0 .636.636 0 0 0 -.18.06.782.782 0 0 0 -.181.09 1.7 1.7 0 0 0 -.149.12.933.933 0 0 0 -.21.33.943.943 0 0 0 0 .76 1.155 1.155 0 0 0 .21.33 1.014 1.014 0 0 0 1.42 0 1.052 1.052 0 0 0 .29-.71 1 1 0 0 0 -.08-.38.933.933 0 0 0 -.21-.33z"/></g></svg>