<svg xmlns="http://www.w3.org/2000/svg" height="512pt" version="1.1" viewBox="0 -19 512.02291 512" width="512pt">
<g id="surface1">
<path d="M 12.605469 240.378906 L 5.605469 234.679688 L 4.90625 244.582031 C 4.703125 247.082031 4.503906 249.480469 4.40625 251.980469 L 4.203125 255.480469 L 7.703125 255.082031 C 12.003906 254.679688 16.105469 252.082031 18.40625 248.378906 L 19.804688 246.179688 L 17.804688 244.480469 C 16.003906 243.179688 14.304688 241.78125 12.605469 240.378906 Z M 12.605469 240.378906 " style=" stroke:none;fill-rule:nonzero;fill:rgb(35.686275%,36.470588%,42.745098%);fill-opacity:1;" />
<path d="M 359.605469 453.480469 L 351.503906 453.980469 C 350.203125 454.082031 349.203125 454.082031 348.203125 454.082031 L 347.90625 454.082031 C 331.605469 453.980469 315.105469 447.878906 302.703125 437.28125 C 301.703125 436.378906 300.703125 435.582031 299.90625 434.679688 L 293.90625 428.679688 L 294.804688 437.179688 C 296.203125 450.378906 305.203125 462.582031 317.003906 467.378906 C 320.703125 468.878906 324.703125 469.679688 328.804688 469.679688 C 337.804688 469.679688 346.90625 465.878906 353.804688 459.179688 Z M 359.605469 453.480469 " style=" stroke:none;fill-rule:nonzero;fill:rgb(57.647059%,60.784314%,66.666667%);fill-opacity:1;" />
<path d="M 67.40625 307.679688 C 60.503906 295.28125 53.304688 282.378906 44.40625 270.78125 L 41.703125 267.28125 L 39.40625 271.082031 C 38.304688 272.78125 36.804688 274.480469 34.90625 275.78125 C 33.304688 276.878906 31.40625 277.480469 29.304688 277.480469 C 29.105469 277.480469 28.804688 277.480469 28.605469 277.480469 L 25.40625 277.28125 L 23.703125 274.28125 L 21.105469 278.878906 C 20.203125 280.480469 19.105469 281.78125 17.703125 282.78125 C 15.90625 284.179688 13.804688 285.082031 11.503906 285.378906 L 8.105469 285.878906 L 9.40625 289.378906 C 13.40625 300.179688 18.804688 310.28125 24.105469 320.082031 L 74.105469 413.679688 C 74.105469 413.679688 76.503906 413.179688 76.503906 413.082031 C 76.90625 413.082031 77.203125 413.082031 77.605469 413.082031 C 83.804688 413.082031 89.90625 411.378906 95.203125 408.179688 L 96.003906 407.679688 L 96.105469 407.78125 L 97.105469 406.980469 L 97.703125 406.582031 L 97.703125 406.480469 L 98.90625 405.480469 C 104.105469 401.28125 107.90625 395.679688 110.003906 389.378906 L 110.40625 388.28125 L 109.90625 387.179688 C 96.40625 359.878906 81.703125 333.378906 67.40625 307.679688 Z M 67.40625 307.679688 " style=" stroke:none;fill-rule:nonzero;fill:rgb(35.686275%,81.568627%,98.823529%);fill-opacity:1;" />
<path d="M 68.304688 306.980469 L 68.503906 307.28125 C 89.304688 344.679688 110.804688 383.28125 127.605469 423.378906 C 128.203125 424.878906 128.804688 426.378906 129.40625 427.878906 L 130.203125 429.78125 L 132.304688 429.78125 C 188.203125 428.78125 243.203125 427.679688 289.605469 426.679688 L 293.503906 426.582031 L 292.503906 422.878906 C 292.304688 422.082031 292.105469 421.28125 292.003906 420.582031 C 291.40625 416.679688 292.503906 412.480469 294.90625 409.378906 C 296.105469 407.878906 297.605469 406.679688 299.203125 405.878906 L 301.40625 404.878906 L 300.90625 402.582031 C 299.90625 397.980469 300.503906 393.082031 302.605469 388.980469 C 305.105469 384.082031 309.804688 380.179688 315.105469 378.582031 L 316.703125 378.082031 L 317.105469 376.480469 C 318.003906 373.28125 319.003906 369.582031 319.105469 365.878906 C 319.203125 356.980469 316.90625 348.582031 312.40625 341.480469 C 308.304688 334.980469 302.90625 329.679688 297.105469 324.179688 C 292.703125 319.980469 288.203125 315.679688 284.40625 310.78125 C 269.105469 290.78125 266.703125 260.480469 277.90625 229.78125 C 288.203125 201.78125 306.503906 179.28125 329.605469 166.378906 C 335.503906 163.082031 342.003906 160.378906 348.703125 158.28125 L 350.804688 157.679688 L 354.503906 39.480469 C 354.804688 31.179688 354.605469 22.679688 349.40625 17.082031 C 344.003906 11.179688 335.105469 10.480469 326.503906 10.28125 L 91.105469 4.28125 C 89.703125 4.28125 88.304688 4.179688 86.90625 4.179688 C 78.90625 4.179688 70.804688 4.878906 64.90625 10.28125 C 58.003906 16.582031 57.003906 26.878906 56.703125 36.980469 L 47.703125 271.082031 C 47.703125 271.082031 47.703125 271.179688 47.703125 271.179688 L 47.304688 272.582031 L 48.203125 273.78125 C 55.605469 284.28125 62.003906 295.878906 68.304688 306.980469 Z M 308.804688 133.480469 C 308.90625 133.378906 309.105469 133.28125 309.203125 133.28125 C 309.304688 133.28125 309.40625 133.28125 309.605469 133.378906 L 326.605469 148.679688 C 326.703125 148.78125 326.804688 148.980469 326.804688 149.082031 C 326.804688 149.179688 326.804688 149.378906 326.703125 149.480469 C 326.605469 149.582031 326.40625 149.679688 326.304688 149.679688 C 326.203125 149.679688 326.105469 149.679688 325.90625 149.582031 L 308.90625 134.28125 C 308.605469 133.980469 308.605469 133.679688 308.804688 133.480469 Z M 271.105469 320.179688 C 271.203125 320.082031 271.304688 320.082031 271.40625 320.082031 C 271.503906 320.082031 271.703125 320.082031 271.90625 320.378906 C 272.003906 320.582031 272.003906 320.679688 272.003906 320.78125 C 272.003906 320.878906 271.90625 320.980469 271.703125 321.082031 L 254.304688 331.179688 C 254.203125 331.28125 254.105469 331.28125 254.003906 331.28125 C 253.90625 331.28125 253.703125 331.28125 253.503906 330.980469 C 253.304688 330.679688 253.40625 330.378906 253.703125 330.28125 Z M 269.105469 167.878906 C 269.203125 167.582031 269.40625 167.480469 269.605469 167.480469 C 269.703125 167.480469 269.703125 167.480469 269.804688 167.480469 L 289.605469 173.679688 C 289.90625 173.78125 290.003906 174.082031 289.90625 174.378906 C 289.804688 174.679688 289.605469 174.78125 289.40625 174.78125 L 289.203125 174.78125 L 269.40625 168.582031 C 269.203125 168.378906 269.003906 168.082031 269.105469 167.878906 Z M 241.203125 217.980469 C 244.503906 216.582031 248.105469 215.878906 251.804688 215.878906 C 254.40625 215.878906 257.003906 216.28125 259.40625 216.980469 C 259.605469 217.082031 259.703125 217.179688 259.703125 217.28125 C 259.703125 217.378906 259.804688 217.480469 259.703125 217.679688 C 259.605469 217.980469 259.40625 218.082031 259.203125 218.082031 C 259.203125 218.082031 259.105469 218.082031 259.003906 218.082031 C 256.703125 217.378906 254.203125 217.082031 251.703125 217.082031 C 248.203125 217.082031 244.703125 217.78125 241.503906 219.179688 C 241.503906 219.179688 241.40625 219.179688 241.304688 219.179688 C 241.105469 219.179688 240.90625 219.082031 240.804688 218.878906 C 240.804688 218.378906 240.90625 218.082031 241.203125 217.980469 Z M 232.90625 271.378906 C 232.90625 271.28125 233.003906 271.179688 233.203125 271.082031 L 253.90625 262.78125 C 254.003906 262.78125 254.003906 262.78125 254.105469 262.78125 C 254.304688 262.78125 254.503906 262.878906 254.605469 263.082031 C 254.703125 263.28125 254.605469 263.378906 254.605469 263.480469 C 254.605469 263.582031 254.503906 263.679688 254.304688 263.78125 L 233.605469 272.082031 C 233.503906 272.082031 233.503906 272.082031 233.40625 272.082031 C 233.203125 272.082031 233.003906 271.980469 232.90625 271.78125 C 232.90625 271.679688 232.90625 271.480469 232.90625 271.378906 Z M 232.90625 271.378906 " style=" stroke:none;fill-rule:nonzero;fill:rgb(100%,100%,100%);fill-opacity:1;" />
<path d="M 69.90625 430.78125 C 70.804688 430.78125 71.804688 430.78125 72.703125 430.78125 C 74.503906 430.78125 75.703125 430.679688 76.804688 430.582031 L 81.90625 430.582031 L 43.90625 359.582031 L 43.203125 380.878906 C 43.003906 388.378906 42.703125 396.78125 42.40625 403.878906 C 42.105469 411.082031 42.203125 417.378906 45.605469 422.480469 C 50.804688 429.78125 60.804688 430.78125 69.90625 430.78125 Z M 69.90625 430.78125 " style=" stroke:none;fill-rule:nonzero;fill:rgb(100%,100%,100%);fill-opacity:1;" />
<path d="M 39.605469 264.878906 L 39.105469 264.28125 C 34.40625 258.980469 28.804688 253.679688 21.003906 247.179688 L 18.40625 245.082031 L 16.605469 247.878906 C 14.503906 251.082031 10.90625 253.082031 7.203125 253.28125 L 4.503906 253.378906 L 4.40625 256.082031 C 4.105469 262.980469 4.203125 271.980469 6.703125 280.878906 C 6.804688 281.378906 7.703125 284.378906 7.703125 284.378906 L 10.003906 284.378906 C 12.703125 284.378906 15.304688 283.480469 17.40625 281.878906 C 19.90625 279.980469 21.605469 276.980469 22.003906 273.78125 C 22.003906 273.582031 22.203125 273.378906 22.40625 273.378906 C 22.503906 273.378906 22.503906 273.378906 22.605469 273.378906 C 22.804688 273.378906 22.90625 273.480469 23.003906 273.582031 C 24.605469 275.378906 27.105469 276.378906 29.605469 276.378906 C 31.40625 276.378906 33.203125 275.878906 34.503906 274.878906 C 37.605469 272.679688 40.503906 268.980469 39.90625 265.582031 Z M 39.605469 264.878906 " style=" stroke:none;fill-rule:nonzero;fill:rgb(100%,82.352941%,73.333333%);fill-opacity:1;" />
<path d="M 126.203125 423.082031 L 123.90625 417.878906 L 120.90625 422.78125 C 117.90625 427.679688 113.703125 431.679688 108.703125 434.378906 C 104.003906 436.878906 98.804688 438.179688 93.503906 438.179688 C 93.105469 438.179688 92.804688 438.179688 92.40625 438.179688 L 87.105469 437.878906 L 92.503906 447.980469 C 95.105469 452.878906 97.804688 457.980469 101.804688 461.980469 C 105.90625 466.082031 110.703125 468.378906 115.503906 468.378906 C 115.90625 468.378906 116.203125 468.378906 116.605469 468.378906 C 125.503906 467.679688 131.703125 458.480469 132.605469 449.980469 C 133.503906 441.179688 130.304688 432.679688 126.703125 424.082031 C 126.503906 423.679688 126.304688 423.378906 126.203125 423.082031 Z M 126.203125 423.082031 " style=" stroke:none;fill-rule:nonzero;fill:rgb(92.941176%,42.745098%,40%);fill-opacity:1;" />
<path d="M 427.003906 167.582031 C 412.503906 159.28125 395.605469 154.878906 378.203125 154.878906 C 361.105469 154.878906 344.40625 159.179688 330.003906 167.179688 C 307.203125 179.980469 289.003906 202.28125 278.804688 230.082031 C 267.605469 260.480469 270.003906 290.378906 285.105469 310.082031 C 288.804688 314.980469 293.304688 319.28125 297.703125 323.378906 C 303.304688 328.679688 309.105469 334.179688 313.203125 340.878906 C 317.703125 348.179688 320.105469 356.78125 320.003906 365.878906 C 320.003906 369.78125 318.90625 373.582031 317.804688 377.378906 C 316.703125 381.28125 315.703125 384.980469 315.804688 388.78125 C 315.90625 393.878906 318.90625 398.582031 324.304688 402.582031 L 328.304688 405.480469 L 339.703125 330.980469 C 341.203125 320.980469 342.804688 310.582031 343.203125 299.980469 L 343.304688 297.480469 L 340.804688 296.980469 C 337.90625 296.378906 335.105469 295.480469 332.605469 294.179688 C 321.503906 288.878906 314.105469 277.582031 314.105469 266.082031 C 314.105469 260.082031 316.90625 253.082031 323.105469 251.679688 C 323.804688 251.582031 324.503906 251.480469 325.203125 251.480469 C 328.105469 251.480469 331.003906 252.78125 333.40625 254.980469 C 336.304688 257.679688 338.003906 261.378906 339.105469 264.28125 C 342.503906 272.78125 344.203125 282.480469 344.304688 293.78125 L 344.304688 296.582031 L 347.105469 296.679688 C 347.605469 296.679688 348.203125 296.679688 348.703125 296.679688 C 354.40625 296.679688 360.203125 295.480469 365.503906 293.179688 L 368.105469 292.082031 L 367.105469 289.378906 C 367.105469 289.28125 367.003906 289.082031 366.90625 288.980469 L 366.804688 288.878906 C 361.003906 275.582031 366.105469 258.878906 378.105469 251.480469 C 380.90625 249.78125 383.804688 248.78125 386.503906 248.78125 C 388.40625 248.78125 390.003906 249.179688 391.40625 250.082031 C 394.40625 251.980469 396.105469 255.78125 395.804688 259.980469 C 395.503906 263.878906 393.703125 267.28125 392.003906 270.179688 C 386.90625 278.78125 380.203125 285.878906 372.605469 290.582031 L 369.703125 292.378906 L 371.804688 294.980469 C 375.203125 299.179688 379.804688 302.582031 385.003906 304.679688 L 387.703125 305.78125 L 388.90625 303.082031 L 389.003906 302.878906 C 394.703125 291.082031 401.804688 277.878906 413.703125 269.878906 C 417.003906 267.679688 420.703125 266.378906 423.90625 266.378906 C 426.605469 266.378906 428.703125 267.28125 430.304688 268.980469 C 432.804688 271.679688 433.304688 276.082031 431.804688 281.378906 C 427.804688 295.179688 415.304688 305.980469 401.605469 307.878906 C 400.304688 308.082031 398.90625 308.179688 397.605469 308.179688 C 395.304688 308.179688 393.003906 307.878906 390.703125 307.480469 L 388.40625 306.980469 L 387.40625 309.179688 C 372.90625 339.980469 361.804688 372.378906 354.304688 405.582031 L 353.503906 409.28125 L 353.003906 406.878906 C 353.003906 406.78125 353.003906 406.679688 353.003906 406.679688 C 360.40625 373.28125 371.605469 340.582031 386.003906 309.582031 L 387.304688 306.78125 L 384.40625 305.582031 C 378.703125 303.179688 373.804688 299.480469 370.304688 294.78125 L 368.804688 292.679688 L 366.605469 293.878906 C 361.003906 296.378906 354.804688 297.78125 348.703125 297.78125 C 348.203125 297.78125 347.703125 297.78125 347.203125 297.78125 L 344.203125 297.679688 L 344.105469 300.679688 C 343.703125 311.28125 342.105469 321.878906 340.605469 331.28125 L 329.203125 405.78125 L 331.304688 406.679688 C 336.90625 409.179688 343.203125 410.679688 348.203125 410.679688 L 348.503906 410.679688 C 349.003906 410.679688 349.503906 410.679688 349.90625 410.582031 L 353.203125 410.378906 L 353.203125 410.582031 L 358.105469 409.179688 C 367.804688 406.378906 376.304688 399.679688 381.003906 391.179688 C 383.105469 387.378906 384.503906 383.28125 385.90625 379.082031 L 386.003906 378.878906 C 387.503906 374.378906 389.105469 369.679688 391.703125 365.582031 C 398.003906 355.082031 409.203125 348.878906 420.003906 342.878906 C 423.605469 340.878906 427.40625 338.78125 430.90625 336.582031 C 459.503906 318.480469 477.503906 284.878906 476.703125 251.082031 C 475.90625 217.082031 456.40625 184.378906 427.003906 167.582031 Z M 427.003906 167.582031 " style=" stroke:none;fill-rule:nonzero;fill:rgb(97.647059%,84.705882%,53.72549%);fill-opacity:1;" />
<path d="M 397.703125 307.082031 C 399.003906 307.082031 400.304688 306.980469 401.605469 306.78125 C 414.90625 305.082031 427.003906 294.480469 430.90625 281.082031 C 431.703125 278.179688 432.703125 272.878906 429.703125 269.679688 C 428.703125 268.679688 427.003906 267.480469 424.003906 267.480469 C 421.105469 267.480469 417.503906 268.679688 414.503906 270.78125 C 403.503906 278.179688 396.605469 290.378906 390.703125 302.378906 L 388.90625 306.082031 L 392.90625 306.679688 C 394.605469 306.980469 396.203125 307.082031 397.703125 307.082031 Z M 397.703125 307.082031 " style=" stroke:none;fill-rule:nonzero;fill:rgb(97.647059%,84.705882%,53.72549%);fill-opacity:1;" />
<path d="M 391.304688 269.582031 C 393.003906 266.78125 394.703125 263.480469 395.003906 259.78125 C 395.203125 256.980469 394.304688 252.878906 391.105469 250.878906 C 389.90625 250.082031 388.40625 249.679688 386.703125 249.679688 C 383.40625 249.679688 380.40625 251.28125 378.90625 252.179688 C 367.605469 259.179688 362.605469 275.582031 368.003906 288.179688 L 369.40625 291.480469 L 372.40625 289.582031 C 379.804688 284.78125 386.304688 277.878906 391.304688 269.582031 Z M 391.304688 269.582031 " style=" stroke:none;fill-rule:nonzero;fill:rgb(97.647059%,84.705882%,53.72549%);fill-opacity:1;" />
<path d="M 332.703125 255.582031 C 330.503906 253.480469 327.804688 252.378906 325.105469 252.378906 C 324.503906 252.378906 323.90625 252.480469 323.304688 252.582031 C 318.003906 253.78125 315.105469 260.28125 315.105469 265.980469 C 315.105469 277.082031 322.304688 287.980469 333.003906 293.082031 C 335.105469 294.082031 337.203125 294.878906 339.503906 295.378906 L 343.304688 296.378906 L 343.203125 292.480469 C 343.003906 281.878906 341.304688 272.78125 338.003906 264.480469 C 337.003906 261.679688 335.40625 258.179688 332.703125 255.582031 Z M 332.703125 255.582031 " style=" stroke:none;fill-rule:nonzero;fill:rgb(97.647059%,84.705882%,53.72549%);fill-opacity:1;" />
<path d="M 81.203125 426.78125 L 86.203125 436.179688 L 87.605469 436.480469 C 89.503906 436.878906 91.40625 436.980469 93.40625 436.980469 C 98.605469 436.980469 103.703125 435.679688 108.203125 433.28125 C 114.503906 429.878906 119.605469 424.179688 122.304688 417.679688 C 122.304688 417.582031 122.40625 417.582031 122.40625 417.480469 L 123.304688 416.179688 L 122.703125 414.679688 C 122.304688 413.679688 121.90625 412.78125 121.40625 411.78125 L 119.804688 408.378906 L 119.804688 408.28125 L 115.304688 398.378906 C 114.90625 397.480469 114.40625 396.582031 114.003906 395.679688 L 111.503906 390.28125 L 108.703125 395.480469 C 106.105469 400.28125 102.503906 404.378906 98.203125 407.480469 C 92.703125 411.378906 86.203125 413.679688 79.40625 413.980469 L 74.605469 414.179688 L 77.703125 419.980469 Z M 81.203125 426.78125 " style=" stroke:none;fill-rule:nonzero;fill:rgb(97.647059%,84.705882%,53.72549%);fill-opacity:1;" />
<path d="M 377.105469 398.679688 L 374.90625 400.78125 C 367.804688 407.480469 358.304688 411.378906 348.804688 411.480469 L 348.503906 411.480469 C 343.503906 411.480469 334.90625 409.878906 327.105469 405.378906 C 321.703125 402.28125 315.105469 396.878906 314.90625 388.679688 C 314.90625 387.378906 315.003906 386.082031 315.203125 384.582031 L 316.105469 378.179688 L 310.605469 381.582031 C 307.503906 383.480469 305.003906 386.179688 303.503906 389.28125 C 302.105469 392.082031 301.40625 395.28125 301.503906 398.582031 L 301.503906 398.878906 L 301.605469 399.179688 C 302.105469 401.082031 302.90625 403.082031 304.003906 404.980469 L 300.105469 404.980469 L 300.703125 406.28125 L 299.703125 406.78125 C 297.90625 407.679688 296.605469 408.980469 295.90625 409.980469 C 293.703125 412.878906 292.605469 416.878906 293.105469 420.378906 C 293.90625 425.878906 297.304688 431.082031 303.605469 436.378906 C 315.804688 446.78125 332.003906 452.78125 348.105469 452.878906 L 348.503906 452.878906 C 356.105469 452.878906 361.804688 451.378906 365.90625 448.179688 C 369.90625 445.082031 372.203125 439.78125 371.40625 435.378906 L 370.804688 431.582031 L 370.203125 431.878906 L 370.203125 430.28125 C 371.804688 429.980469 373.40625 429.679688 374.90625 429.28125 L 375.40625 429.179688 L 375.804688 428.878906 C 379.703125 426.28125 382.503906 422.179688 383.605469 417.878906 C 385.003906 412.082031 383.40625 405.582031 379.304688 400.980469 Z M 377.105469 398.679688 " style=" stroke:none;fill-rule:nonzero;fill:rgb(74.901961%,78.039216%,84.705882%);fill-opacity:1;" />
<path d="M 480.804688 250.78125 C 480.003906 215.582031 459.703125 181.480469 429.105469 164.082031 C 406.804688 151.378906 379.804688 147.878906 354.90625 153.480469 L 358.503906 39.582031 C 358.804688 30.480469 358.503906 21.082031 352.40625 14.28125 C 345.90625 7.179688 335.703125 6.378906 326.605469 6.179688 L 91.105469 0.0820312 C 80.605469 -0.21875 69.804688 0.179688 62.105469 7.179688 C 54.003906 14.480469 52.90625 25.78125 52.503906 36.679688 L 43.703125 263.378906 C 43.40625 263.082031 43.105469 262.679688 42.804688 262.378906 C 42.804688 262.28125 42.703125 262.179688 42.703125 262.179688 C 42.40625 261.679688 42.003906 261.28125 41.605469 260.980469 C 33.605469 252.082031 24.203125 244.480469 15.105469 237.179688 C 12.503906 235.082031 9.804688 232.980469 7.203125 230.78125 C 6.203125 229.878906 4.703125 229.78125 3.503906 230.28125 C 2.304688 230.78125 1.503906 231.980469 1.40625 233.378906 C 1.304688 236.878906 1.003906 240.582031 0.804688 244.082031 C -0.09375 256.582031 -0.996094 269.480469 2.605469 281.980469 C 6.605469 296.179688 13.605469 309.28125 20.40625 321.980469 L 39.804688 358.28125 C 39.503906 364.980469 39.304688 372.980469 39.003906 380.582031 C 38.703125 388.480469 38.503906 396.679688 38.203125 403.582031 C 38.003906 409.679688 37.605469 418.082031 42.203125 424.582031 C 48.203125 433.28125 59.304688 434.78125 69.90625 434.78125 C 70.804688 434.78125 71.703125 434.78125 72.605469 434.78125 C 74.605469 434.78125 75.90625 434.582031 77.105469 434.480469 C 78.105469 434.378906 79.105469 434.28125 80.40625 434.28125 L 88.703125 449.78125 C 91.304688 454.679688 94.304688 460.28125 98.703125 464.78125 C 103.503906 469.679688 109.503906 472.378906 115.304688 472.378906 C 115.804688 472.378906 116.203125 472.378906 116.703125 472.28125 C 125.304688 471.582031 135.105469 463.679688 136.40625 450.28125 C 136.90625 444.679688 136.003906 439.179688 134.40625 433.878906 C 191.304688 432.878906 247.304688 431.679688 290.40625 430.78125 C 289.304688 447.582031 299.605469 464.78125 315.304688 471.179688 C 319.605469 472.878906 324.105469 473.78125 328.605469 473.78125 C 341.40625 473.78125 354.304688 466.980469 362.304688 455.179688 C 362.40625 454.980469 362.503906 454.878906 362.605469 454.679688 C 364.605469 453.878906 366.503906 452.878906 368.105469 451.582031 C 374.304688 446.78125 376.203125 439.582031 375.003906 433.980469 C 381.105469 431.082031 385.703125 425.480469 387.304688 418.878906 C 389.105469 411.480469 386.90625 403.28125 381.605469 397.78125 C 382.703125 396.28125 383.703125 394.679688 384.605469 393.082031 C 386.90625 388.980469 388.40625 384.582031 389.804688 380.28125 C 391.40625 375.679688 392.804688 371.378906 395.203125 367.582031 C 401.003906 357.980469 411.105469 352.378906 421.90625 346.378906 C 425.605469 344.28125 429.503906 342.179688 433.105469 339.878906 C 462.90625 320.980469 481.605469 285.980469 480.804688 250.78125 Z M 99.804688 410.082031 C 104.605469 406.679688 108.503906 402.179688 111.203125 396.980469 C 111.703125 398.082031 112.304688 399.28125 112.804688 400.378906 C 110.503906 406.378906 106.203125 411.679688 100.703125 415.082031 C 94.804688 418.679688 87.503906 420.179688 80.703125 419.179688 C 80.605469 419.179688 80.503906 419.179688 80.503906 419.179688 L 79.40625 417.082031 C 86.703125 416.78125 93.804688 414.28125 99.804688 410.082031 Z M 116.40625 408.28125 C 113.804688 413.980469 109.304688 418.878906 103.90625 421.878906 C 98.003906 425.28125 90.703125 426.480469 84.003906 425.378906 C 83.90625 425.378906 83.804688 425.378906 83.703125 425.378906 L 82.703125 423.480469 C 83.40625 423.480469 84.203125 423.582031 84.90625 423.582031 C 91.203125 423.582031 97.503906 421.78125 102.804688 418.582031 C 107.90625 415.378906 112.203125 410.679688 115.003906 405.28125 C 115.503906 406.28125 116.003906 407.28125 116.40625 408.28125 Z M 86.203125 429.78125 C 87.203125 429.878906 88.203125 429.878906 89.203125 429.878906 C 95.105469 429.878906 100.90625 428.378906 106.003906 425.480469 C 111.203125 422.480469 115.605469 418.179688 118.605469 413.082031 C 119.003906 413.980469 119.40625 414.980469 119.90625 415.878906 C 119.804688 416.082031 119.605469 416.28125 119.503906 416.582031 C 117.105469 422.480469 112.40625 427.679688 106.804688 430.679688 C 101.203125 433.679688 94.503906 434.679688 88.203125 433.480469 Z M 97.003906 403.28125 L 28.503906 280.480469 C 31.40625 280.679688 34.304688 279.980469 36.703125 278.28125 C 38.804688 276.78125 40.703125 274.878906 42.003906 272.679688 C 50.703125 284.082031 57.804688 296.78125 64.703125 309.179688 C 79.105469 334.980469 93.804688 361.480469 107.003906 388.582031 C 105.304688 394.28125 101.703125 399.480469 97.003906 403.28125 Z M 36.804688 266.179688 C 37.105469 267.980469 35.105469 270.679688 32.703125 272.480469 C 30.503906 274.082031 26.90625 273.582031 25.105469 271.582031 C 24.203125 270.582031 22.703125 270.179688 21.40625 270.582031 C 20.105469 270.980469 19.105469 272.082031 18.90625 273.480469 C 18.605469 275.878906 17.304688 278.082031 15.40625 279.582031 C 13.804688 280.78125 11.804688 281.480469 9.804688 281.480469 C 9.703125 281.082031 9.503906 280.582031 9.40625 280.179688 C 7.203125 272.480469 6.90625 264.480469 7.203125 256.28125 C 11.90625 255.980469 16.304688 253.378906 18.90625 249.480469 C 25.304688 254.679688 31.40625 260.179688 36.804688 266.179688 Z M 8.203125 240.679688 C 9.105469 241.378906 9.90625 242.082031 10.703125 242.679688 C 12.40625 244.082031 14.105469 245.378906 15.804688 246.78125 C 14.003906 249.679688 10.804688 251.78125 7.40625 252.082031 C 7.503906 249.582031 7.703125 247.082031 7.90625 244.582031 C 8.003906 243.378906 8.105469 241.980469 8.203125 240.679688 Z M 12.203125 288.378906 C 14.90625 287.980469 17.605469 286.878906 19.804688 285.179688 C 21.503906 283.878906 22.90625 282.179688 23.90625 280.378906 L 93.703125 405.582031 C 88.605469 408.679688 82.605469 410.28125 76.605469 410.082031 C 76.304688 410.082031 76.003906 410.082031 75.703125 410.179688 L 26.703125 318.679688 C 21.40625 308.878906 16.105469 298.78125 12.203125 288.378906 Z M 76.703125 427.480469 C 75.503906 427.582031 74.40625 427.679688 72.605469 427.679688 C 62.605469 427.878906 52.703125 427.179688 48.203125 420.582031 C 45.304688 416.28125 45.203125 410.480469 45.503906 403.78125 C 45.804688 396.878906 46.003906 388.679688 46.304688 380.78125 C 46.40625 377.378906 46.503906 373.980469 46.605469 370.679688 L 77.003906 427.480469 C 76.804688 427.480469 76.703125 427.480469 76.703125 427.480469 Z M 129.503906 449.582031 C 128.804688 456.878906 123.703125 464.679688 116.304688 465.28125 C 112.203125 465.582031 107.703125 463.582031 103.90625 459.78125 C 100.203125 456.082031 97.605469 451.179688 95.105469 446.480469 L 92.203125 441.082031 C 92.605469 441.082031 93.003906 441.082031 93.40625 441.082031 C 99.203125 441.082031 104.90625 439.679688 110.105469 436.878906 C 115.605469 433.878906 120.203125 429.582031 123.503906 424.28125 C 123.605469 424.582031 123.703125 424.78125 123.804688 425.082031 C 127.304688 433.378906 130.304688 441.480469 129.503906 449.582031 Z M 130.304688 422.378906 C 113.40625 381.980469 91.804688 343.28125 70.90625 305.78125 C 64.605469 294.480469 58.105469 282.78125 50.304688 271.980469 C 50.40625 271.679688 50.40625 271.480469 50.40625 271.179688 L 59.40625 36.980469 C 59.804688 27.582031 60.605469 17.878906 66.703125 12.378906 C 72.503906 7.082031 81.40625 6.878906 90.804688 7.179688 L 326.203125 13.179688 C 334.203125 13.378906 342.304688 13.980469 346.90625 18.980469 C 351.304688 23.78125 351.40625 31.679688 351.203125 39.28125 L 347.605469 155.378906 C 340.804688 157.480469 334.203125 160.179688 327.90625 163.679688 C 304.203125 176.980469 285.40625 200.082031 274.90625 228.679688 C 263.304688 260.378906 265.804688 291.679688 281.804688 312.582031 C 285.703125 317.679688 290.304688 322.082031 294.804688 326.378906 C 300.40625 331.78125 305.804688 336.878906 309.703125 343.082031 C 313.804688 349.679688 316.003906 357.582031 315.90625 365.878906 C 315.90625 369.082031 315.003906 372.28125 314.105469 375.679688 C 308.003906 377.480469 302.605469 381.878906 299.703125 387.582031 C 297.304688 392.378906 296.605469 397.980469 297.703125 403.179688 C 295.703125 404.179688 293.804688 405.679688 292.40625 407.582031 C 289.503906 411.378906 288.203125 416.378906 288.90625 421.082031 C 289.003906 421.980469 289.203125 422.878906 289.503906 423.78125 C 245.90625 424.679688 189.503906 425.878906 132.203125 426.878906 C 131.605469 425.378906 130.90625 423.78125 130.304688 422.378906 Z M 310.203125 414.378906 C 323.105469 426.082031 340.40625 432.480469 357.703125 432.480469 C 360.804688 432.480469 363.90625 432.28125 366.90625 431.878906 C 366.90625 431.980469 366.90625 432.082031 366.90625 432.179688 C 355.804688 437.179688 342.703125 437.679688 331.203125 433.480469 C 319.40625 429.082031 309.605469 419.78125 304.503906 408.179688 C 306.105469 410.28125 308.003906 412.28125 310.203125 414.378906 Z M 318.203125 464.582031 C 307.003906 459.980469 299.105469 448.78125 297.804688 436.78125 C 298.703125 437.679688 299.703125 438.582031 300.804688 439.582031 C 313.703125 450.582031 330.90625 456.980469 347.90625 457.082031 C 348.003906 457.082031 348.105469 457.082031 348.304688 457.082031 C 349.503906 457.082031 350.703125 457.082031 351.804688 456.980469 C 342.503906 465.980469 329.40625 469.179688 318.203125 464.582031 Z M 363.804688 445.980469 C 360.203125 448.78125 355.003906 450.082031 347.90625 450.082031 C 332.503906 449.980469 317.003906 444.179688 305.40625 434.28125 C 299.703125 429.480469 296.605469 424.78125 296.003906 420.082031 C 295.605469 417.28125 296.40625 414.179688 298.203125 411.878906 C 298.804688 411.082031 299.703125 410.179688 300.90625 409.582031 C 306.40625 422.179688 317.003906 432.378906 329.90625 437.179688 C 335.503906 439.28125 341.503906 440.28125 347.503906 440.28125 C 354.605469 440.28125 361.703125 438.78125 368.304688 435.878906 C 368.804688 439.582031 366.703125 443.679688 363.804688 445.980469 Z M 380.503906 417.082031 C 379.605469 420.78125 377.105469 424.179688 374.003906 426.28125 C 352.804688 431.78125 329.203125 426.082031 313.003906 411.28125 C 308.203125 406.980469 305.40625 402.679688 304.40625 398.480469 C 304.304688 395.78125 304.90625 393.082031 306.105469 390.679688 C 307.503906 387.980469 309.605469 385.78125 312.105469 384.179688 C 311.90625 385.679688 311.804688 387.179688 311.804688 388.679688 C 312.203125 405.679688 335.605469 414.378906 348.40625 414.378906 C 348.503906 414.378906 348.605469 414.378906 348.703125 414.378906 C 359.203125 414.28125 369.304688 409.980469 376.804688 402.78125 C 380.203125 406.679688 381.703125 412.28125 380.503906 417.082031 Z M 383.503906 308.179688 C 368.90625 339.378906 357.703125 372.179688 350.203125 405.878906 C 350.105469 406.378906 350.105469 406.878906 350.203125 407.378906 C 349.703125 407.378906 349.203125 407.480469 348.605469 407.480469 C 348.503906 407.480469 348.40625 407.480469 348.304688 407.480469 C 344.003906 407.480469 338.105469 406.179688 332.605469 403.78125 L 343.605469 331.679688 C 345.105469 322.179688 346.703125 311.480469 347.105469 300.679688 C 354.105469 300.980469 361.304688 299.582031 367.90625 296.582031 C 367.90625 296.582031 367.90625 296.582031 368.003906 296.582031 C 372.003906 301.582031 377.40625 305.679688 383.503906 308.179688 Z M 380.503906 254.78125 C 382.304688 253.679688 384.703125 252.679688 386.703125 252.679688 C 387.703125 252.679688 388.605469 252.878906 389.40625 253.378906 C 391.304688 254.582031 392.003906 257.378906 391.90625 259.480469 C 391.703125 262.480469 390.105469 265.480469 388.703125 267.980469 C 384.003906 275.980469 377.703125 282.480469 370.804688 286.980469 C 366.003906 275.78125 370.40625 260.980469 380.503906 254.78125 Z M 429.304688 333.78125 C 425.90625 335.980469 422.105469 338.082031 418.503906 340.082031 C 407.40625 346.179688 395.90625 352.582031 389.203125 363.78125 C 386.503906 368.28125 384.804688 373.179688 383.203125 377.878906 C 381.804688 382.082031 380.40625 385.980469 378.503906 389.582031 C 374.105469 397.582031 366.203125 403.582031 357.40625 406.179688 C 364.804688 373.179688 375.90625 340.980469 390.304688 310.378906 C 394.203125 311.179688 398.203125 311.378906 402.203125 310.878906 C 417.105469 308.980469 430.503906 297.179688 434.90625 282.28125 C 436.804688 275.878906 436.003906 270.480469 432.804688 266.980469 C 427.503906 261.28125 418.703125 263.082031 412.304688 267.480469 C 399.804688 275.878906 392.503906 289.480469 386.605469 301.679688 C 386.605469 301.78125 386.503906 301.878906 386.503906 301.878906 C 381.804688 299.980469 377.605469 296.878906 374.503906 293.082031 C 382.503906 288.082031 389.40625 280.78125 394.90625 271.679688 C 396.804688 268.480469 398.804688 264.582031 399.105469 260.179688 C 399.503906 254.980469 397.203125 249.980469 393.304688 247.582031 C 388.90625 244.78125 382.703125 245.28125 376.90625 248.878906 C 363.703125 256.980469 358.105469 275.480469 364.503906 290.082031 C 364.605469 290.179688 364.605469 290.378906 364.703125 290.480469 C 359.105469 292.878906 353.203125 293.980469 347.503906 293.679688 C 347.40625 283.378906 345.90625 272.980469 342.003906 263.179688 C 340.703125 259.980469 338.90625 255.980469 335.605469 252.878906 C 331.90625 249.378906 327.003906 247.878906 322.605469 248.878906 C 314.804688 250.679688 311.304688 259.082031 311.203125 266.28125 C 311.203125 278.878906 319.304688 291.28125 331.40625 297.082031 C 334.203125 298.378906 337.203125 299.378906 340.304688 300.082031 C 339.90625 310.582031 338.304688 321.082031 336.804688 330.878906 L 326.105469 400.082031 C 321.90625 397.082031 318.90625 393.179688 318.804688 388.679688 C 318.703125 385.28125 319.703125 381.878906 320.703125 378.179688 C 321.804688 374.28125 322.90625 370.28125 322.90625 365.980469 C 323.003906 356.378906 320.503906 347.179688 315.605469 339.378906 C 311.304688 332.378906 305.304688 326.78125 299.605469 321.28125 C 295.105469 316.980469 290.90625 312.980469 287.304688 308.378906 C 272.804688 289.480469 270.605469 260.679688 281.40625 231.28125 C 291.304688 204.179688 309.105469 182.480469 331.304688 169.980469 C 345.503906 161.980469 361.703125 158.082031 378.003906 158.082031 C 394.503906 158.082031 411.003906 162.179688 425.304688 170.378906 C 453.804688 186.679688 472.703125 218.378906 473.503906 251.179688 C 474.503906 283.679688 457.105469 316.28125 429.304688 333.78125 Z M 393.40625 303.78125 C 398.804688 292.78125 405.503906 280.582031 416.203125 273.28125 C 420.003906 270.679688 425.304688 269.28125 427.605469 271.78125 C 429.703125 273.980469 428.703125 278.480469 428.105469 280.28125 C 424.503906 292.582031 413.503906 302.28125 401.304688 303.878906 C 398.703125 304.179688 396.003906 304.179688 393.40625 303.78125 Z M 340.304688 292.480469 C 338.203125 291.980469 336.203125 291.28125 334.40625 290.378906 C 324.703125 285.78125 318.203125 275.878906 318.203125 265.980469 C 318.203125 261.582031 320.304688 256.378906 324.003906 255.480469 C 324.40625 255.378906 324.703125 255.378906 325.105469 255.378906 C 326.90625 255.378906 329.003906 256.28125 330.605469 257.78125 C 332.90625 259.980469 334.304688 263.082031 335.304688 265.582031 C 338.703125 274.179688 340.105469 283.28125 340.304688 292.480469 Z M 340.304688 292.480469 " style=" stroke:none;fill-rule:nonzero;fill:rgb(0%,0%,0%);fill-opacity:1;" />
<path d="M 306.804688 136.378906 L 323.804688 151.679688 C 324.503906 152.28125 325.304688 152.582031 326.203125 152.582031 C 327.203125 152.582031 328.105469 152.179688 328.804688 151.378906 C 330.105469 149.980469 330.003906 147.679688 328.503906 146.378906 L 311.503906 131.082031 C 310.105469 129.78125 307.804688 129.878906 306.503906 131.378906 C 305.203125 132.878906 305.40625 135.082031 306.804688 136.378906 Z M 306.804688 136.378906 " style=" stroke:none;fill-rule:nonzero;fill:rgb(0%,0%,0%);fill-opacity:1;" />
<path d="M 290.40625 170.878906 L 270.605469 164.679688 C 268.703125 164.082031 266.804688 165.179688 266.203125 166.980469 C 265.605469 168.878906 266.703125 170.78125 268.503906 171.378906 L 288.304688 177.582031 C 288.703125 177.679688 289.003906 177.78125 289.40625 177.78125 C 290.90625 177.78125 292.304688 176.78125 292.804688 175.28125 C 293.304688 173.378906 292.304688 171.378906 290.40625 170.878906 Z M 290.40625 170.878906 " style=" stroke:none;fill-rule:nonzero;fill:rgb(0%,0%,0%);fill-opacity:1;" />
<path d="M 241.40625 221.980469 C 241.90625 221.980469 242.304688 221.878906 242.804688 221.679688 C 247.605469 219.679688 253.203125 219.28125 258.203125 220.78125 C 260.105469 221.28125 262.003906 220.28125 262.605469 218.378906 C 263.203125 216.480469 262.105469 214.582031 260.203125 213.980469 C 253.605469 211.980469 246.40625 212.480469 240.003906 215.179688 C 238.203125 215.980469 237.40625 217.980469 238.105469 219.78125 C 238.703125 221.179688 240.003906 221.980469 241.40625 221.980469 Z M 241.40625 221.980469 " style=" stroke:none;fill-rule:nonzero;fill:rgb(0%,0%,0%);fill-opacity:1;" />
<path d="M 233.40625 275.179688 C 233.804688 275.179688 234.304688 275.082031 234.703125 274.878906 L 255.40625 266.582031 C 257.203125 265.878906 258.105469 263.78125 257.40625 261.980469 C 256.703125 260.179688 254.605469 259.28125 252.804688 259.980469 L 232.105469 268.28125 C 230.304688 268.980469 229.40625 271.082031 230.105469 272.878906 C 230.703125 274.28125 232.003906 275.179688 233.40625 275.179688 Z M 233.40625 275.179688 " style=" stroke:none;fill-rule:nonzero;fill:rgb(0%,0%,0%);fill-opacity:1;" />
<path d="M 269.605469 317.582031 L 252.304688 327.679688 C 250.605469 328.679688 250.003906 330.78125 251.003906 332.480469 C 251.703125 333.582031 252.804688 334.28125 254.105469 334.28125 C 254.703125 334.28125 255.304688 334.082031 255.90625 333.78125 L 273.203125 323.679688 C 274.90625 322.679688 275.503906 320.582031 274.503906 318.878906 C 273.503906 317.179688 271.304688 316.582031 269.605469 317.582031 Z M 269.605469 317.582031 " style=" stroke:none;fill-rule:nonzero;fill:rgb(0%,0%,0%);fill-opacity:1;" />
<path d="M 378.304688 140.78125 C 378.40625 140.78125 378.605469 140.78125 378.703125 140.78125 C 380.605469 140.582031 382.003906 138.78125 381.804688 136.878906 C 381.105469 130.28125 382.003906 123.582031 384.605469 117.378906 C 385.304688 115.582031 384.503906 113.480469 382.703125 112.78125 C 380.90625 111.980469 378.804688 112.878906 378.105469 114.679688 C 375.105469 121.878906 374.003906 129.878906 374.90625 137.679688 C 375.003906 139.480469 376.605469 140.78125 378.304688 140.78125 Z M 378.304688 140.78125 " style=" stroke:none;fill-rule:nonzero;fill:rgb(0%,0%,0%);fill-opacity:1;" />
<path d="M 417.503906 145.082031 C 418.105469 145.378906 418.703125 145.582031 419.304688 145.582031 C 420.503906 145.582031 421.703125 144.980469 422.304688 143.878906 L 432.90625 126.082031 C 433.90625 124.378906 433.304688 122.28125 431.703125 121.28125 C 430.003906 120.28125 427.90625 120.878906 426.90625 122.480469 L 416.304688 140.28125 C 415.304688 141.878906 415.804688 144.082031 417.503906 145.082031 Z M 417.503906 145.082031 " style=" stroke:none;fill-rule:nonzero;fill:rgb(0%,0%,0%);fill-opacity:1;" />
<path d="M 449.605469 162.78125 C 450.304688 162.78125 451.003906 162.582031 451.703125 162.082031 L 469.605469 149.082031 C 471.203125 147.980469 471.503906 145.679688 470.40625 144.179688 C 469.304688 142.582031 467.003906 142.28125 465.503906 143.378906 L 447.605469 156.378906 C 446.003906 157.480469 445.703125 159.78125 446.804688 161.28125 C 447.503906 162.28125 448.503906 162.78125 449.605469 162.78125 Z M 449.605469 162.78125 " style=" stroke:none;fill-rule:nonzero;fill:rgb(0%,0%,0%);fill-opacity:1;" />
<path d="M 476.304688 189.480469 C 476.804688 189.480469 477.40625 189.378906 477.90625 189.082031 C 482.90625 186.480469 488.503906 185.179688 494.105469 185.179688 C 496.105469 185.179688 497.605469 183.582031 497.605469 181.679688 C 497.605469 179.78125 496.003906 178.179688 494.105469 178.179688 C 487.40625 178.179688 480.605469 179.78125 474.703125 182.878906 C 473.003906 183.78125 472.304688 185.878906 473.203125 187.679688 C 473.703125 188.78125 475.003906 189.480469 476.304688 189.480469 Z M 476.304688 189.480469 " style=" stroke:none;fill-rule:nonzero;fill:rgb(0%,0%,0%);fill-opacity:1;" />
<path d="M 489.105469 238.878906 C 488.90625 240.78125 490.40625 242.480469 492.304688 242.679688 L 508.203125 243.980469 C 508.304688 243.980469 508.40625 243.980469 508.503906 243.980469 C 510.304688 243.980469 511.90625 242.582031 512.003906 240.679688 C 512.203125 238.78125 510.703125 237.082031 508.804688 236.878906 L 492.90625 235.582031 C 491.003906 235.480469 489.304688 236.878906 489.105469 238.878906 Z M 489.105469 238.878906 " style=" stroke:none;fill-rule:nonzero;fill:rgb(0%,0%,0%);fill-opacity:1;" />
<path d="M 490.503906 331.378906 C 485.105469 327.28125 478.40625 324.878906 471.703125 324.480469 C 469.804688 324.378906 468.105469 325.878906 468.003906 327.78125 C 467.90625 329.679688 469.40625 331.378906 471.304688 331.480469 C 476.703125 331.78125 482.003906 333.679688 486.304688 336.980469 C 486.90625 337.480469 487.703125 337.679688 488.40625 337.679688 C 489.503906 337.679688 490.503906 337.179688 491.203125 336.28125 C 492.304688 334.78125 492.003906 332.582031 490.503906 331.378906 Z M 490.503906 331.378906 " style=" stroke:none;fill-rule:nonzero;fill:rgb(0%,0%,0%);fill-opacity:1;" />
<path d="M 445.503906 357.179688 C 444.105469 355.78125 441.90625 355.878906 440.503906 357.28125 C 439.105469 358.679688 439.203125 360.878906 440.605469 362.28125 L 453.605469 374.78125 C 454.304688 375.480469 455.203125 375.78125 456.105469 375.78125 C 457.003906 375.78125 458.003906 375.378906 458.605469 374.679688 C 460.003906 373.28125 459.90625 371.082031 458.503906 369.679688 Z M 445.503906 357.179688 " style=" stroke:none;fill-rule:nonzero;fill:rgb(0%,0%,0%);fill-opacity:1;" />
<path d="M 509.304688 287.679688 L 493.804688 279.582031 C 492.105469 278.679688 489.90625 279.378906 489.003906 281.082031 C 488.105469 282.78125 488.804688 284.980469 490.503906 285.878906 L 506.003906 293.980469 C 506.503906 294.28125 507.105469 294.378906 507.605469 294.378906 C 508.90625 294.378906 510.105469 293.679688 510.703125 292.480469 C 511.703125 290.78125 511.003906 288.582031 509.304688 287.679688 Z M 509.304688 287.679688 " style=" stroke:none;fill-rule:nonzero;fill:rgb(0%,0%,0%);fill-opacity:1;" />
<path d="M 310.105469 42.480469 C 277.105469 42.378906 240.304688 42.28125 203.503906 42.28125 C 166.703125 42.179688 130.003906 42.082031 96.90625 42.082031 C 95.804688 42.082031 94.90625 41.179688 94.90625 40.082031 C 94.90625 38.980469 95.804688 38.082031 96.90625 38.082031 C 129.90625 38.179688 166.703125 38.28125 203.503906 38.28125 C 240.304688 38.378906 277.003906 38.480469 310.105469 38.480469 C 311.203125 38.480469 312.105469 39.378906 312.105469 40.480469 C 312.105469 41.582031 311.203125 42.480469 310.105469 42.480469 Z M 310.105469 42.480469 " style=" stroke:none;fill-rule:nonzero;fill:rgb(0%,0%,0%);fill-opacity:1;" />
<path d="M 310.105469 65.78125 C 277.105469 65.679688 240.304688 65.582031 203.503906 65.582031 C 166.703125 65.480469 130.003906 65.378906 96.90625 65.378906 C 95.804688 65.378906 94.90625 64.480469 94.90625 63.378906 C 94.90625 62.28125 95.804688 61.378906 96.90625 61.378906 C 129.90625 61.480469 166.703125 61.582031 203.503906 61.582031 C 240.304688 61.679688 277.003906 61.78125 310.105469 61.78125 C 311.203125 61.78125 312.105469 62.679688 312.105469 63.78125 C 312.105469 64.878906 311.203125 65.78125 310.105469 65.78125 Z M 310.105469 65.78125 " style=" stroke:none;fill-rule:nonzero;fill:rgb(0%,0%,0%);fill-opacity:1;" />
<path d="M 310.105469 90.179688 C 277.105469 90.082031 240.304688 89.980469 203.503906 89.980469 C 166.703125 89.878906 130.003906 89.78125 96.90625 89.78125 C 95.804688 89.78125 94.90625 88.878906 94.90625 87.78125 C 94.90625 86.679688 95.804688 85.78125 96.90625 85.78125 C 129.90625 85.878906 166.703125 85.980469 203.503906 85.980469 C 240.304688 86.082031 277.003906 86.179688 310.105469 86.179688 C 311.203125 86.179688 312.105469 87.082031 312.105469 88.179688 C 312.105469 89.28125 311.203125 90.179688 310.105469 90.179688 Z M 310.105469 90.179688 " style=" stroke:none;fill-rule:nonzero;fill:rgb(0%,0%,0%);fill-opacity:1;" />
<path d="M 310.105469 113.480469 C 277.105469 113.378906 240.304688 113.28125 203.503906 113.28125 C 166.703125 113.179688 130.003906 113.082031 96.90625 113.082031 C 95.804688 113.082031 94.90625 112.179688 94.90625 111.082031 C 94.90625 109.980469 95.804688 109.082031 96.90625 109.082031 C 129.90625 109.179688 166.703125 109.28125 203.503906 109.28125 C 240.304688 109.378906 277.003906 109.480469 310.105469 109.480469 C 311.203125 109.480469 312.105469 110.378906 312.105469 111.480469 C 312.105469 112.582031 311.203125 113.480469 310.105469 113.480469 Z M 310.105469 113.480469 " style=" stroke:none;fill-rule:nonzero;fill:rgb(0%,0%,0%);fill-opacity:1;" />
<path d="M 216.105469 149.78125 C 195.804688 149.582031 173.304688 149.378906 150.703125 149.179688 C 128.105469 148.980469 105.605469 148.78125 85.304688 148.582031 C 84.203125 148.582031 83.304688 147.679688 83.304688 146.582031 C 83.304688 145.480469 84.203125 144.582031 85.304688 144.582031 C 105.605469 144.78125 128.105469 144.980469 150.703125 145.179688 C 173.304688 145.378906 195.804688 145.582031 216.105469 145.78125 C 217.203125 145.78125 218.105469 146.679688 218.105469 147.78125 C 218.105469 148.878906 217.203125 149.78125 216.105469 149.78125 Z M 216.105469 149.78125 " style=" stroke:none;fill-rule:nonzero;fill:rgb(0%,0%,0%);fill-opacity:1;" />
<path d="M 215.605469 172.980469 C 195.304688 172.78125 172.804688 172.582031 150.203125 172.378906 C 127.605469 172.179688 105.105469 171.980469 84.804688 171.78125 C 83.703125 171.78125 82.804688 170.878906 82.804688 169.78125 C 82.804688 168.679688 83.703125 167.78125 84.804688 167.78125 C 105.105469 167.980469 127.605469 168.179688 150.203125 168.378906 C 172.804688 168.582031 195.304688 168.78125 215.605469 168.980469 C 216.703125 168.980469 217.605469 169.878906 217.605469 170.980469 C 217.605469 172.082031 216.703125 172.980469 215.605469 172.980469 Z M 215.605469 172.980469 " style=" stroke:none;fill-rule:nonzero;fill:rgb(0%,0%,0%);fill-opacity:1;" />
<path d="M 215.003906 197.378906 C 194.703125 197.179688 172.203125 196.980469 149.605469 196.78125 C 127.003906 196.582031 104.503906 196.378906 84.203125 196.179688 C 83.105469 196.179688 82.203125 195.28125 82.203125 194.179688 C 82.203125 193.082031 83.203125 192.179688 84.203125 192.179688 C 104.503906 192.378906 127.003906 192.582031 149.605469 192.78125 C 172.203125 192.980469 194.703125 193.179688 215.003906 193.378906 C 216.105469 193.378906 217.003906 194.28125 217.003906 195.378906 C 217.003906 196.480469 216.105469 197.378906 215.003906 197.378906 Z M 215.003906 197.378906 " style=" stroke:none;fill-rule:nonzero;fill:rgb(0%,0%,0%);fill-opacity:1;" />
<path d="M 214.503906 220.679688 C 194.203125 220.480469 171.703125 220.28125 149.105469 220.082031 C 126.503906 219.878906 104.003906 219.679688 83.703125 219.480469 C 82.605469 219.480469 81.703125 218.582031 81.703125 217.480469 C 81.703125 216.378906 82.605469 215.480469 83.703125 215.480469 C 104.003906 215.679688 126.503906 215.878906 149.105469 216.082031 C 171.703125 216.28125 194.203125 216.480469 214.503906 216.679688 C 215.605469 216.679688 216.503906 217.582031 216.503906 218.679688 C 216.503906 219.78125 215.605469 220.679688 214.503906 220.679688 Z M 214.503906 220.679688 " style=" stroke:none;fill-rule:nonzero;fill:rgb(0%,0%,0%);fill-opacity:1;" />
<path d="M 216.105469 245.082031 C 195.503906 244.878906 172.605469 244.679688 149.703125 244.480469 C 127.503906 244.28125 105.304688 244.082031 85.304688 243.878906 C 84.203125 243.878906 83.304688 242.980469 83.304688 241.878906 C 83.304688 240.78125 84.203125 239.878906 85.304688 239.878906 C 105.304688 240.082031 127.40625 240.28125 149.703125 240.480469 C 172.605469 240.679688 195.605469 240.878906 216.105469 241.082031 C 217.203125 241.082031 218.105469 241.980469 218.105469 243.082031 C 218.105469 244.28125 217.203125 245.082031 216.105469 245.082031 Z M 216.105469 245.082031 " style=" stroke:none;fill-rule:nonzero;fill:rgb(0%,0%,0%);fill-opacity:1;" />
<path d="M 215.605469 268.378906 C 195.605469 268.179688 173.40625 267.980469 151.203125 267.78125 C 128.304688 267.582031 105.304688 267.378906 84.804688 267.179688 C 83.703125 267.179688 82.804688 266.28125 82.804688 265.179688 C 82.804688 264.082031 83.703125 263.179688 84.804688 263.179688 C 105.40625 263.378906 128.304688 263.582031 151.203125 263.78125 C 173.40625 263.980469 195.605469 264.179688 215.605469 264.378906 C 216.703125 264.378906 217.605469 265.28125 217.605469 266.378906 C 217.605469 267.480469 216.703125 268.378906 215.605469 268.378906 Z M 215.605469 268.378906 " style=" stroke:none;fill-rule:nonzero;fill:rgb(0%,0%,0%);fill-opacity:1;" />
<path d="M 215.003906 292.78125 C 195.003906 292.582031 172.804688 292.378906 150.605469 292.179688 C 127.703125 291.980469 104.703125 291.78125 84.203125 291.582031 C 83.105469 291.582031 82.203125 290.679688 82.203125 289.582031 C 82.203125 288.480469 83.105469 287.582031 84.203125 287.582031 C 104.804688 287.78125 127.703125 287.980469 150.605469 288.179688 C 172.804688 288.378906 195.003906 288.582031 215.003906 288.78125 C 216.105469 288.78125 217.003906 289.679688 217.003906 290.78125 C 217.003906 291.878906 216.105469 292.78125 215.003906 292.78125 Z M 215.003906 292.78125 " style=" stroke:none;fill-rule:nonzero;fill:rgb(0%,0%,0%);fill-opacity:1;" />
</g>
</svg>